<svg xmlns="http://www.w3.org/2000/svg" xmlns:xlink="http://www.w3.org/1999/xlink" version="1.1" x="0px" y="0px" style="enable-background:new 0 0 760 768;" xml:space="preserve" viewBox="156.19 156.95 475.81 476.36">
<style type="text/css">
	.st0{opacity:0.14;fill:#FFFFFF;}
	.st1{opacity:0.14;fill:none;stroke:#FFFFFF;stroke-width:5;stroke-linecap:round;stroke-linejoin:round;stroke-miterlimit:10;}
	.st2{opacity:0.1;fill:none;stroke:#FFFFFF;stroke-width:5;stroke-linecap:round;stroke-linejoin:round;stroke-miterlimit:10;}
</style>
<g id="Layer_1">
	<path class="st0" d="M173.16,633.31c-4.51,0-8.53-2.14-11.08-5.46c-3.56-2.53-5.88-6.69-5.88-11.4V513.66   c0-41.45,33.72-75.17,75.17-75.17h105.11c7.72,0,13.98,6.26,13.98,13.98v105.12c0,41.45-33.72,75.17-75.17,75.17l-102.06,0.55   C173.21,633.31,173.18,633.31,173.16,633.31z M231.37,466.45c-26.04,0-47.22,21.18-47.22,47.21v91.63l91.06-0.49   c26.11,0,47.29-21.18,47.29-47.21v-91.14H231.37z"/>
	<path class="st0" d="M336.48,408.23H192.14c-19.82,0-35.95-16.12-35.95-35.95V249.91c0-19.82,16.13-35.95,35.95-35.95h122.37   c19.82,0,35.95,16.13,35.95,35.95v144.34C350.46,401.97,344.2,408.23,336.48,408.23z M192.14,241.92c-4.41,0-7.99,3.59-7.99,7.99   v122.37c0,4.41,3.59,7.99,7.99,7.99H322.5V249.91c0-4.41-3.58-7.99-7.99-7.99H192.14z"/>
	<path class="st0" d="M517.07,408.23H394.71c-7.72,0-13.98-6.26-13.98-13.98V271.88c0-31.94,25.98-57.92,57.92-57.92h122.37   c7.72,0,13.98,6.26,13.98,13.98v122.37C574.99,382.25,549.01,408.23,517.07,408.23z M408.68,380.27h108.39   c16.52,0,29.96-13.44,29.96-29.96v-108.4H438.65c-16.52,0-29.96,13.44-29.96,29.96V380.27z"/>
	<path class="st0" d="M539.04,632.76H416.67c-19.82,0-35.95-16.13-35.95-35.95V452.47c0-7.72,6.26-13.98,13.98-13.98h144.34   c19.82,0,35.95,16.12,35.95,35.95v122.37C574.99,616.63,558.86,632.76,539.04,632.76z M408.68,466.45v130.36   c0,4.41,3.58,7.99,7.99,7.99h122.37c4.41,0,7.99-3.59,7.99-7.99V474.44c0-4.41-3.59-7.99-7.99-7.99H408.68z"/>
	<path class="st0" d="M618.02,410.73c-7.72,0-13.98-6.26-13.98-13.98V184.91H392.2c-7.72,0-13.98-6.26-13.98-13.98   s6.26-13.98,13.98-13.98h225.82c7.72,0,13.98,6.26,13.98,13.98v225.82C632,404.47,625.74,410.73,618.02,410.73z"/>
</g>
<g id="Layer_2">
</g>
</svg>